
<svg version="1.0" xmlns="http://www.w3.org/2000/svg"
 width="722.000000pt" height="722.000000pt" viewBox="0 0 722.000000 722.000000"
 preserveAspectRatio="xMidYMid meet">
<metadata>
Created by potrace 1.14, written by Peter Selinger 2001-2017
</metadata>
<g transform="translate(0.000000,722.000000) scale(0.100000,-0.100000)"
fill="#000000" stroke="none">
<path d="M3320 7210 c-244 -23 -513 -73 -724 -136 -1146 -338 -2051 -1217
-2420 -2351 -123 -381 -171 -689 -171 -1113 0 -429 53 -763 182 -1148 230
-692 692 -1327 1279 -1759 39 -29 74 -53 76 -53 3 0 8 33 12 73 19 203 107
531 203 756 79 186 219 427 321 554 36 44 40 25 -46 217 -87 195 -109 241
-324 695 -300 629 -400 867 -452 1074 -27 110 -34 219 -15 268 29 79 107 113
256 113 170 0 349 -50 568 -159 248 -122 462 -279 699 -510 345 -338 623 -726
863 -1204 l65 -131 47 134 c206 588 555 1262 908 1752 142 197 252 328 398
473 149 148 270 239 400 300 205 97 362 93 457 -13 54 -60 73 -131 72 -272 -2
-260 -108 -639 -394 -1415 -279 -755 -334 -909 -396 -1089 l-64 -188 55 -60
c309 -334 466 -709 508 -1212 l12 -149 90 68 c726 551 1219 1349 1379 2235 43
241 51 339 51 655 0 328 -10 440 -66 716 -215 1072 -924 2001 -1908 2498 -390
197 -750 307 -1206 367 -132 18 -582 26 -715 14z"/>
<path d="M2795 1641 c-54 -25 -98 -74 -132 -146 -24 -52 -28 -72 -28 -155 0
-83 4 -103 28 -155 34 -72 78 -121 132 -146 55 -26 102 -24 164 7 164 82 202
378 69 529 -71 81 -152 104 -233 66z"/>
<path d="M4395 1641 c-167 -78 -218 -338 -100 -517 38 -58 114 -104 172 -104
150 0 269 197 234 386 -35 190 -174 297 -306 235z"/>
<path d="M3569 795 c-54 -17 -114 -74 -130 -122 -39 -118 60 -233 200 -233
129 0 213 71 213 180 0 26 -7 60 -15 76 -46 88 -165 132 -268 99z"/>
</g>
</svg>
